<svg width="26.000000" height="26.000000" viewBox="0 0 26 26" fill="none" xmlns="http://www.w3.org/2000/svg" xmlns:xlink="http://www.w3.org/1999/xlink">
	<desc>
			Created with Pixso.
	</desc>
	<defs>
		<clipPath id="clip1_1775">
			<rect id="like 1" width="26.000000" height="26.000000" fill="white" fill-opacity="0"/>
		</clipPath>
	</defs>
	<rect id="like 1" width="26.000000" height="26.000000" fill="#FFFFFF" fill-opacity="0"/>
	<g clip-path="url(#clip1_1775)">
		<path id="Vector" d="M5.36719 12.2622L2.31445 12.2622C1.89258 12.2622 1.55078 12.604 1.55078 13.0254L1.55078 25.2368C1.55078 25.6584 1.89258 26.0002 2.31445 26.0002L5.36719 26.0002C5.78906 26.0002 6.13086 25.6584 6.13086 25.2368L6.13086 13.0254C6.13086 12.604 5.78906 12.2622 5.36719 12.2622Z" fill="#FFFFFF" fill-opacity="1.000000" fill-rule="nonzero"/>
		<path id="Vector" d="M24.4336 14.2852C24.2988 13.1013 23.1934 12.2622 22.002 12.2622L16.0508 12.2622C16.5566 11.3567 16.8281 8.79565 16.8164 7.74927C16.7969 6.01758 15.3633 4.62988 13.6309 4.62988L13 4.62988C12.5781 4.62988 12.2383 4.97119 12.2383 5.39307C12.2383 7.15796 11.5508 10.3435 10.2539 11.6396C9.38281 12.5122 8.63672 12.8281 7.6582 13.3169L7.6582 24.769C9.15625 25.2681 11.0566 26 13.9531 26L18.9473 26C20.5918 26 21.873 24.4766 21.2344 22.8667C22.207 22.6021 22.9219 21.7114 22.9219 20.6575C22.9219 20.3601 22.8652 20.0754 22.7617 19.8137C24.3984 19.3679 25 17.3472 23.8652 16.0781C24.2812 15.6121 24.5117 14.9744 24.4336 14.2852Z" fill="#FFFFFF" fill-opacity="1.000000" fill-rule="nonzero"/>
	</g>
</svg>
