<svg width="24.000000" height="21.468750" viewBox="0 0 24 21.4688" fill="none" xmlns="http://www.w3.org/2000/svg" xmlns:xlink="http://www.w3.org/1999/xlink">
	<desc>
			Created with Pixso.
	</desc>
	<defs/>
	<path id="XMLID 1469" d="M13.2656 5.22607C13.2656 3.83057 12.1309 2.69482 10.7344 2.69482C9.33789 2.69482 8.20312 3.83057 8.20312 5.22607C8.20312 6.62158 9.33789 7.75732 10.7344 7.75732C12.1309 7.75732 13.2656 6.62158 13.2656 5.22607ZM9.14062 5.22607C9.14062 4.34717 9.85547 3.63232 10.7344 3.63232C11.6133 3.63232 12.3281 4.34717 12.3281 5.22607C12.3281 6.10498 11.6133 6.81982 10.7344 6.81982C9.85547 6.81982 9.14062 6.10498 9.14062 5.22607Z" fill="#FFFFFF" fill-opacity="1.000000" fill-rule="nonzero"/>
	<path id="XMLID 1605" d="M6.64453 11.2866C7.24609 10.98 7.69336 10.457 7.90234 9.81396C8.11133 9.1709 8.05664 8.48535 7.75 7.8833C7.44336 7.28076 6.91992 6.83398 6.27734 6.625C5.63477 6.41602 4.94727 6.47021 4.3457 6.77734C3.74414 7.08398 3.29688 7.60693 3.08789 8.25C2.87891 8.89258 2.93359 9.57861 3.24023 10.1807C3.54688 10.7832 4.07031 11.23 4.71289 11.439C4.9707 11.5225 5.23438 11.564 5.49805 11.564C5.89062 11.564 6.2832 11.4707 6.64453 11.2866ZM5.00195 10.5474C4.59766 10.4155 4.26758 10.1343 4.07617 9.75537C3.88281 9.37598 3.84766 8.94434 3.98047 8.53955C4.11133 8.13477 4.39258 7.80566 4.77148 7.6123C4.99805 7.49658 5.24414 7.43799 5.49219 7.43799C5.6582 7.43799 5.82422 7.46436 5.98633 7.5166C6.39258 7.64844 6.7207 7.92969 6.91406 8.30859C7.10742 8.68799 7.14062 9.11963 7.00977 9.52441C6.87891 9.9292 6.59766 10.2583 6.21875 10.4517C5.83984 10.6445 5.40625 10.6787 5.00195 10.5474Z" fill="#FFFFFF" fill-opacity="1.000000" fill-rule="nonzero"/>
	<path id="XMLID 1609" d="M6.00977 17.2388C6.45703 17.5645 6.97852 17.7212 7.49414 17.7212C8.27734 17.7212 9.05078 17.3594 9.54492 16.6787C9.94141 16.1318 10.1035 15.4629 9.99609 14.7949C9.89062 14.127 9.53125 13.5405 8.98438 13.1431C8.4375 12.7456 7.76953 12.585 7.10156 12.6909C6.43359 12.7969 5.8457 13.1562 5.44922 13.7031C4.62891 14.832 4.88086 16.418 6.00977 17.2388ZM6.20703 14.2544C6.45703 13.9097 6.82812 13.6836 7.24805 13.6167C7.33203 13.6035 7.41602 13.5967 7.5 13.5967C7.83398 13.5967 8.1582 13.7017 8.43359 13.9019C9.14453 14.418 9.30273 15.4165 8.78711 16.1274C8.26953 16.8384 7.27148 16.9966 6.56055 16.48C5.84961 15.9634 5.69141 14.9648 6.20703 14.2544Z" fill="#FFFFFF" fill-opacity="1.000000" fill-rule="nonzero"/>
	<path id="XMLID 1659" d="M13.9766 17.7212C14.4922 17.7212 15.0117 17.564 15.4609 17.2388C16.5898 16.418 16.8418 14.832 16.0215 13.7031C15.623 13.1562 15.0371 12.7969 14.3691 12.6909C13.7012 12.585 13.0332 12.7456 12.4863 13.1431C11.9375 13.5405 11.5781 14.127 11.4727 14.7949C11.3672 15.4624 11.5273 16.1313 11.9258 16.6787C12.4199 17.3594 13.1934 17.7212 13.9766 17.7212ZM13.0371 13.9014C13.3809 13.6514 13.8027 13.5503 14.2227 13.6167C14.6426 13.6836 15.0117 13.9097 15.2617 14.2539C15.7793 14.9648 15.6211 15.9634 14.9102 16.48C14.1992 16.9966 13.2012 16.8384 12.6836 16.1274C12.168 15.4165 12.3262 14.418 13.0371 13.9014Z" fill="#FFFFFF" fill-opacity="1.000000" fill-rule="nonzero"/>
	<path id="XMLID 1678" d="M15.1914 6.625C14.5488 6.83398 14.0254 7.28076 13.7188 7.88281C13.4121 8.48535 13.3574 9.1709 13.5664 9.81396C13.7754 10.457 14.2227 10.98 14.8242 11.2866C15.1855 11.4707 15.5762 11.564 15.9707 11.564C16.2344 11.564 16.498 11.5225 16.7559 11.439C17.3984 11.23 17.9219 10.7832 18.2285 10.1807C18.5352 9.57861 18.5898 8.89258 18.3809 8.25C18.1719 7.60693 17.7246 7.08398 17.123 6.77686C16.5195 6.47021 15.834 6.4165 15.1914 6.625ZM16.6973 7.6123C17.0762 7.80566 17.3574 8.13477 17.4883 8.53955C17.6191 8.94434 17.5859 9.37598 17.3926 9.75537C17.1992 10.1343 16.8711 10.4155 16.4648 10.5474C16.0605 10.6787 15.6289 10.6445 15.25 10.4517C14.8711 10.2583 14.5898 9.9292 14.459 9.52441C14.3262 9.11963 14.3613 8.68799 14.5547 8.30859C14.7461 7.92969 15.0762 7.64844 15.4805 7.5166C15.6426 7.46387 15.8086 7.43799 15.9746 7.43799C16.2227 7.43799 16.4688 7.49658 16.6973 7.6123Z" fill="#FFFFFF" fill-opacity="1.000000" fill-rule="nonzero"/>
	<path id="XMLID 1713" d="M12.3418 10.7344C12.3418 9.84814 11.6211 9.12695 10.7344 9.12695C9.84766 9.12695 9.12695 9.84814 9.12695 10.7344C9.12695 11.6206 9.84766 12.3418 10.7344 12.3418C11.6211 12.3418 12.3418 11.6206 12.3418 10.7344ZM10.0645 10.7344C10.0645 10.3647 10.3652 10.0645 10.7344 10.0645C11.1035 10.0645 11.4043 10.3647 11.4043 10.7344C11.4043 11.104 11.1035 11.4043 10.7344 11.4043C10.3652 11.4043 10.0645 11.104 10.0645 10.7344Z" fill="#FFFFFF" fill-opacity="1.000000" fill-rule="nonzero"/>
	<path id="XMLID 1768" d="M23.8633 19.4414C23.332 18.9116 22.627 18.6196 21.8789 18.6196C21.1289 18.6196 20.4238 18.9116 19.8945 19.4414C19.1914 20.1445 18.2578 20.5312 17.2637 20.5312L15.1348 20.5312C16.3086 20.0039 17.3887 19.2617 18.3242 18.3247C20.3516 16.2974 21.4688 13.6016 21.4688 10.7344C21.4688 8.63721 20.8633 6.60547 19.7188 4.8584C19.5781 4.64209 19.2871 4.58154 19.0703 4.72363C18.8535 4.86523 18.793 5.15576 18.9355 5.37256C19.9785 6.96631 20.5312 8.82031 20.5312 10.7344C20.5312 16.1362 16.1367 20.5312 10.7344 20.5312C5.33203 20.5312 0.9375 16.1362 0.9375 10.7344C0.9375 5.33252 5.33203 0.9375 10.7344 0.9375C12.6523 0.9375 14.5078 1.49121 16.1035 2.53857C16.3203 2.68066 16.6113 2.62061 16.7539 2.4043C16.8945 2.18799 16.8359 1.89697 16.6191 1.75488C14.8691 0.606934 12.8359 0 10.7344 0C7.86719 0 5.17188 1.1167 3.14453 3.14404C1.11719 5.17139 0 7.86719 0 10.7344C0 13.6016 1.11719 16.2974 3.14453 18.3247C5.17188 20.3521 7.86719 21.4688 10.7344 21.4688L17.2637 21.4688C18.5078 21.4688 19.6777 20.9844 20.5566 20.1045C20.9102 19.7515 21.3789 19.5571 21.8789 19.5571C22.377 19.5571 22.8477 19.7515 23.1992 20.1045C23.3828 20.2876 23.6797 20.2876 23.8633 20.1045C24.0449 19.9214 24.0449 19.6245 23.8633 19.4414Z" fill="#FFFFFF" fill-opacity="1.000000" fill-rule="nonzero"/>
	<path id="XMLID 1769" d="M17.9961 3.94727C18.1191 3.94727 18.2402 3.89746 18.3281 3.81055C18.4141 3.72266 18.4648 3.60205 18.4648 3.479C18.4648 3.35547 18.4141 3.23486 18.3281 3.14697C18.2402 3.06006 18.1191 3.01025 17.9961 3.01025C17.873 3.01025 17.752 3.06006 17.6641 3.14697C17.5781 3.23486 17.5273 3.35547 17.5273 3.479C17.5273 3.60205 17.5781 3.72314 17.6641 3.81055C17.752 3.89746 17.873 3.94727 17.9961 3.94727Z" fill="#FFFFFF" fill-opacity="1.000000" fill-rule="nonzero"/>
</svg>
