<svg width="17.000000" height="20.000000" viewBox="0 0 17 20" fill="none" xmlns="http://www.w3.org/2000/svg" xmlns:xlink="http://www.w3.org/1999/xlink">
	<desc>
			Created with Pixso.
	</desc>
	<defs/>
	<path id="Vector" d="M15.33 7.69L3.52 0.41C2.67 -0.12 1.63 -0.14 0.76 0.35C-0.12 0.84 -0.64 1.73 -0.64 2.73L-0.64 17.23C-0.64 18.75 0.58 19.99 2.08 20C2.09 20 2.09 20 2.1 20C2.56 20 3.05 19.85 3.51 19.57C3.88 19.34 4 18.86 3.77 18.5C3.55 18.13 3.07 18.01 2.7 18.24C2.49 18.37 2.28 18.44 2.09 18.44C1.52 18.43 0.92 17.95 0.92 17.23L0.92 2.73C0.92 2.3 1.14 1.92 1.52 1.71C1.89 1.5 2.34 1.51 2.7 1.73L14.52 9.02C14.87 9.23 15.07 9.6 15.07 10.02C15.07 10.43 14.87 10.8 14.51 11.01L5.97 16.24C5.6 16.47 5.49 16.95 5.71 17.32C5.94 17.68 6.42 17.8 6.78 17.57L15.32 12.34C16.14 11.85 16.63 10.98 16.63 10.02C16.63 9.06 16.15 8.19 15.33 7.69Z" fill="#FFFFFF" fill-opacity="1.000000" fill-rule="nonzero"/>
</svg>
